<?xml version="1.0" standalone="no"?>
<!DOCTYPE svg PUBLIC "-//W3C//DTD SVG 20010904//EN"
 "http://www.w3.org/TR/2001/REC-SVG-20010904/DTD/svg10.dtd">
<svg version="1.0" xmlns="http://www.w3.org/2000/svg"
 width="300.000000pt" height="300.000000pt" viewBox="0 0 300.000000 300.000000"
 preserveAspectRatio="xMidYMid meet">
<metadata>
Created by potrace 1.10, written by Peter Selinger 2001-2011
</metadata>
<g transform="translate(0.000000,300.000000) scale(0.100000,-0.100000)"
fill="#000000" stroke="none">
<path d="M1645 2796 c-72 -24 -110 -44 -172 -90 -106 -78 -180 -197 -204 -330
l-12 -65 -61 5 c-77 6 -456 24 -501 24 -32 0 -33 1 -40 49 -4 27 -12 57 -18
66 -13 17 -451 125 -508 125 -96 0 -160 -130 -102 -208 30 -41 68 -56 236 -93
l155 -33 53 -254 c56 -265 63 -282 109 -267 31 10 31 35 0 178 -16 76 -30 140
-30 142 0 3 20 5 45 5 38 0 45 -3 50 -22 3 -13 48 -216 100 -451 51 -236 99
-435 106 -443 10 -12 150 -14 975 -14 l964 0 0 -50 0 -50 -1012 2 -1011 3 -61
288 c-64 301 -70 317 -115 302 -11 -3 -22 -13 -25 -21 -7 -19 120 -623 136
-641 6 -7 26 -13 44 -13 34 0 34 0 34 -49 0 -44 -3 -49 -25 -55 -51 -13 -65
-42 -65 -133 0 -76 2 -86 25 -108 13 -14 35 -25 48 -25 32 0 41 -34 26 -96
-35 -137 77 -276 222 -276 171 0 283 178 204 326 l-24 46 104 0 c94 0 105 2
115 20 8 14 8 26 0 40 -10 19 -21 20 -323 20 l-313 0 0 50 0 50 1008 0 1008 0
0 -50 0 -50 -626 -2 c-584 -3 -628 -4 -638 -20 -8 -13 -8 -23 0 -35 10 -17 43
-18 407 -21 l395 -2 6 -25 c4 -14 2 -45 -5 -67 -24 -92 27 -209 112 -254 197
-102 416 107 314 300 l-24 46 48 0 c74 0 91 24 91 127 0 45 -3 89 -6 98 -18
45 -9 45 -939 45 l-875 0 0 50 0 50 885 0 886 0 24 25 c23 22 25 32 25 107 0
92 -12 121 -55 132 -19 5 -25 12 -21 24 6 20 191 892 199 938 11 62 11 62
-318 79 -165 8 -311 15 -326 15 -22 0 -26 4 -22 23 7 37 -25 168 -57 234 -61
123 -189 233 -318 273 -72 22 -102 15 -102 -24 0 -29 13 -40 65 -56 169 -54
288 -190 318 -365 31 -182 -76 -383 -246 -464 -223 -106 -485 -15 -595 208
-36 73 -37 77 -37 190 0 110 2 120 32 183 58 122 160 211 284 248 72 22 88 42
62 79 -16 24 -32 25 -88 7z m-1285 -354 l204 -48 28 -120 c15 -65 27 -122 27
-126 1 -14 -87 -9 -91 5 -3 6 -11 43 -19 81 -9 49 -19 72 -34 81 -11 7 -96 29
-190 50 -93 20 -176 42 -182 47 -16 13 -17 50 -1 66 18 18 36 16 258 -36z
m-315 -20 c-13 -13 -23 22 -12 42 11 20 12 20 15 -7 2 -16 1 -32 -3 -35z m644
-130 c3 -1 -5 -12 -17 -24 -26 -26 -37 -18 -46 35 l-7 38 33 -23 c18 -12 35
-24 37 -26z m621 -28 c0 -39 -9 -43 -35 -14 -17 19 -17 21 0 40 23 26 35 17
35 -26z m-157 8 c3 -4 -3 -18 -14 -31 l-19 -23 -20 23 c-10 13 -19 27 -20 32
0 9 67 9 73 -1z m1160 -30 c16 -17 15 -20 -8 -42 -31 -29 -38 -23 -30 24 8 41
15 44 38 18z m-1244 -8 c2 -2 12 -57 22 -121 10 -65 20 -127 23 -138 5 -19 1
-20 -77 -17 -45 2 -129 7 -186 10 l-105 7 -27 122 c-14 67 -29 129 -33 138 -5
14 13 15 187 9 105 -4 194 -8 196 -10z m199 -39 c5 -54 42 -149 77 -200 19
-27 33 -50 32 -51 -1 -1 -41 0 -88 3 l-86 6 -17 116 c-9 64 -20 126 -23 139
-5 22 -3 23 48 20 52 -3 54 -4 57 -33z m1262 8 c0 -9 -32 -43 -40 -43 -4 0
-15 11 -24 25 l-16 25 40 0 c22 0 40 -3 40 -7z m427 -29 c3 -8 1 -20 -6 -27
-8 -8 -15 -6 -26 9 -20 26 -19 34 5 34 11 0 23 -7 27 -16z m-510 -27 c-3 -12
-14 -73 -23 -135 l-18 -113 -113 3 c-107 3 -128 8 -102 24 33 20 94 137 123
239 2 6 31 9 71 7 63 -4 66 -5 62 -25z m451 -2 c2 -2 -9 -63 -24 -135 l-28
-132 -175 7 c-97 4 -177 8 -177 9 -2 1 44 271 45 271 31 0 357 -19 359 -20z
m-2219 -62 c1 -28 -7 -28 -38 -2 l-24 20 24 25 24 26 6 -24 c4 -13 7 -33 8
-45z m-150 26 l24 -20 -22 -22 c-19 -19 -23 -20 -31 -7 -11 18 -13 70 -2 70 4
-1 18 -10 31 -21z m957 -216 c-2 -2 -29 -1 -60 3 -52 6 -55 8 -41 24 8 9 15
27 15 40 0 22 3 21 45 -20 24 -24 43 -45 41 -47z m-733 10 c-21 -32 -30 -29
-42 15 -15 53 -15 55 23 30 32 -21 33 -23 19 -45z m438 26 l32 -30 -21 -22
-22 -22 -32 32 c-31 32 -31 33 -13 53 10 11 19 20 20 20 2 0 18 -14 36 -31z
m962 1 c-3 -12 2 -29 11 -39 22 -25 6 -35 -40 -27 -50 10 -103 -24 -104 -66 0
-23 -16 -23 -42 1 l-20 20 49 24 c26 14 71 43 98 66 27 23 50 41 51 41 1 0 0
-9 -3 -20z m319 -47 c24 -22 22 -34 -11 -60 l-28 -22 -23 24 -22 24 28 25 c35
30 33 30 56 9z m-1344 -18 c1 -1 11 -58 22 -126 11 -68 23 -131 25 -139 4 -14
-17 -15 -168 -12 -94 2 -173 5 -174 6 -4 3 -63 267 -63 280 0 8 46 9 177 2 98
-4 179 -9 181 -11z m392 -41 l40 -27 0 -77 c0 -43 3 -92 6 -109 l7 -31 -155 0
-154 0 -22 138 c-12 75 -22 139 -22 142 0 3 58 2 130 -2 117 -7 134 -10 170
-34z m1365 14 c-10 -45 -19 -52 -40 -28 -17 19 -17 20 6 39 34 29 42 26 34
-11z m-1263 -14 l30 -16 -23 -24 c-16 -18 -25 -21 -28 -12 -2 7 -10 25 -18 41
-16 31 -6 34 39 11z m686 -10 c53 -4 82 -10 81 -17 0 -7 -8 -59 -18 -117 l-17
-105 -153 -3 -153 -3 7 123 c4 68 9 125 10 128 4 6 112 3 243 -6z m430 -20
c81 -5 93 -8 87 -22 -3 -9 -16 -61 -27 -114 l-21 -98 -168 0 c-93 0 -169 3
-169 6 0 8 30 192 35 221 5 23 -3 23 263 7z m-773 -172 l-7 -54 -151 6 -152 5
-6 93 c-3 51 -5 94 -4 95 1 2 17 -2 36 -7 46 -14 195 -11 244 4 l40 12 3 -51
c2 -27 1 -74 -3 -103z m-1116 -83 c1 -10 -39 -43 -45 -36 -3 3 -8 25 -11 48
l-6 43 31 -24 c17 -14 31 -28 31 -31z m403 23 c26 -27 26 -28 9 -51 l-18 -24
-36 29 -36 28 21 23 c27 28 27 28 60 -5z m388 -7 l23 -25 -23 -25 -24 -25 -28
27 -28 27 22 23 c27 29 29 29 58 -2z m390 -50 c-29 -31 -35 -31 -56 0 -16 25
-16 27 7 51 l23 25 25 -25 25 -25 -24 -26z m394 43 c15 -20 14 -23 -16 -50
-17 -15 -33 -28 -34 -28 -1 0 -9 12 -19 26 -17 26 -17 27 11 50 36 29 39 29
58 2z m386 -53 l-11 -29 -21 21 -21 21 29 26 c25 22 29 22 32 7 2 -9 -2 -30
-8 -46z m-1616 -27 c3 -18 13 -76 21 -128 9 -52 18 -103 21 -112 5 -17 -7 -18
-158 -18 l-164 0 -28 133 c-16 72 -31 138 -33 145 -4 9 33 12 165 12 l171 0 5
-32z m373 18 c2 -1 6 -64 10 -139 l8 -137 -131 0 -131 0 -21 138 c-12 75 -22
140 -22 143 0 5 281 0 287 -5z m390 -63 c-4 -38 -7 -101 -7 -140 l0 -73 -140
0 -140 0 0 33 c0 19 -3 82 -7 140 l-6 107 153 0 153 0 -6 -67z m255 57 c109 0
129 -2 125 -14 -3 -8 -14 -69 -24 -135 l-17 -121 -132 0 -131 0 4 128 c5 145
7 156 29 148 9 -3 74 -6 146 -6z m547 -10 c0 -3 -13 -61 -28 -130 l-28 -125
-163 -3 -162 -3 5 23 c3 13 14 74 23 136 l18 114 168 -4 c92 -1 168 -5 167 -8z
m-1451 -302 c-15 -9 -52 -11 -61 -2 -3 4 1 17 10 31 l16 24 24 -22 c17 -17 20
-25 11 -31z m350 0 c-17 -10 -55 -10 -62 0 -3 5 2 19 10 31 l16 22 24 -22 c18
-17 21 -25 12 -31z m365 0 c-5 -10 -35 -10 -58 -2 -14 6 -14 9 6 30 l22 23 17
-22 c10 -12 16 -25 13 -29z m345 0 c-15 -9 -52 -11 -61 -2 -3 4 1 17 10 31
l16 24 24 -22 c17 -17 20 -25 11 -31z m422 7 c18 -19 31 -37 28 -40 -3 -3 -11
1 -18 10 -7 8 -27 15 -45 15 -40 0 -47 7 -32 31 17 27 28 24 67 -16z m-1930
-202 c0 -3 -7 -15 -17 -25 -15 -17 -17 -17 -35 -2 -27 25 -22 34 17 34 19 0
35 -3 35 -7z m190 0 c0 -9 -32 -43 -40 -43 -4 0 -15 11 -24 25 l-16 25 40 0
c22 0 40 -3 40 -7z m-80 -83 l0 -50 -50 0 -50 0 0 50 0 50 50 0 50 0 0 -50z
m-114 -89 c-8 -12 -66 -15 -66 -3 0 4 7 18 16 31 16 23 17 23 36 3 11 -11 17
-25 14 -31z m177 21 c20 -22 13 -32 -23 -32 -15 0 -30 3 -33 7 -7 7 21 43 33
43 4 0 14 -8 23 -18z m-173 -242 c-12 -16 -22 -30 -24 -30 -1 0 -12 14 -24 30
l-23 30 46 0 46 0 -21 -30z m330 23 c0 -5 -7 -16 -15 -26 -7 -11 -11 -25 -8
-33 8 -20 0 -18 -42 16 -44 35 -65 37 -90 10 -19 -22 -36 -15 -56 22 -9 17 -3
18 101 18 60 0 110 -3 110 -7z m1210 -23 l-22 -31 -19 25 c-26 33 -25 36 22
36 l40 0 -21 -30z m330 23 c0 -5 -7 -16 -15 -26 -7 -11 -11 -25 -8 -33 8 -22
-6 -17 -44 16 -39 35 -63 38 -88 10 -19 -22 -36 -15 -56 22 -9 17 -3 18 101
18 60 0 110 -3 110 -7z m-1760 -83 c0 -46 -2 -50 -18 -41 -28 15 -72 62 -72
77 0 10 14 14 45 14 l45 0 0 -50z m1540 0 c0 -46 -2 -50 -18 -41 -28 15 -72
62 -72 77 0 10 14 14 45 14 l45 0 0 -50z m-1416 19 c37 -29 56 -71 56 -123 0
-117 -158 -178 -239 -92 -19 20 -54 96 -47 103 1 1 24 -9 51 -22 26 -14 63
-25 81 -25 49 0 62 26 56 110 -5 76 0 82 42 49z m1544 -4 c40 -33 56 -76 49
-131 -11 -105 -138 -158 -221 -93 -30 24 -56 69 -56 97 0 18 2 18 47 -4 54
-28 105 -31 124 -8 9 11 12 40 10 90 -1 44 2 74 8 74 5 0 23 -11 39 -25z
m-1751 -74 c-7 -2 -22 -12 -33 -23 -27 -25 -34 -9 -21 52 l9 44 28 -34 c18
-22 24 -36 17 -39z m1540 0 c-7 -2 -22 -12 -33 -23 -27 -25 -34 -9 -21 52 l9
44 28 -34 c18 -22 24 -36 17 -39z m-1417 -6 c0 -20 -5 -25 -27 -25 l-26 0 23
25 c13 14 25 25 27 25 2 0 3 -11 3 -25z m1540 0 c0 -20 -5 -25 -27 -25 l-26 0
23 25 c13 14 25 25 27 25 2 0 3 -11 3 -25z"/>
<path d="M1772 2664 c-17 -12 -22 -25 -22 -63 0 -46 -1 -49 -31 -55 -47 -9
-105 -72 -114 -124 -5 -34 -2 -52 17 -90 32 -65 76 -92 149 -92 71 0 104 -14
119 -50 22 -54 -25 -100 -103 -100 -38 0 -53 5 -72 25 -14 13 -25 28 -25 34 0
13 -33 23 -53 15 -59 -22 2 -135 80 -150 32 -6 33 -8 33 -53 0 -51 13 -71 45
-71 33 0 45 20 45 72 0 28 5 48 11 48 6 0 27 7 46 16 103 50 113 208 16 271
-17 12 -55 20 -107 24 -66 5 -82 9 -98 28 -40 50 -10 109 59 118 49 6 100 -11
108 -37 10 -33 33 -44 60 -32 49 23 15 111 -55 140 -37 16 -39 20 -42 66 -4
61 -30 85 -66 60z m28 -152 c-41 -4 -48 3 -24 29 l19 21 18 -24 19 -23 -32 -3z
m30 -469 c0 -3 -7 -15 -17 -25 -15 -17 -17 -17 -35 -2 -27 25 -22 34 17 34 19
0 35 -3 35 -7z"/>
</g>
</svg>
